<?xml version="1.0" encoding="UTF-8" standalone="no"?>
<svg width="48" height="48" viewBox="0 0 48 48" fill="none" xmlns="http://www.w3.org/2000/svg">
    <circle cx="24" cy="24" r="22" stroke="#3F51B5" stroke-width="2" fill="none" />
    <circle cx="24" cy="24" r="18" stroke="#3F51B5" stroke-width="1.5" fill="none" />
    <circle cx="24" cy="24" r="14" stroke="#3F51B5" stroke-width="1" fill="none" />

    <!-- Nodes at different layers -->
    <circle cx="24" cy="10" r="3" fill="#3F51B5" />
    <circle cx="38" cy="24" r="3" fill="#3F51B5" />
    <circle cx="24" cy="38" r="3" fill="#3F51B5" />
    <circle cx="10" cy="24" r="3" fill="#3F51B5" />

    <!-- Inner nodes -->
    <circle cx="30" cy="18" r="2" fill="#3F51B5" />
    <circle cx="18" cy="18" r="2" fill="#3F51B5" />
    <circle cx="30" cy="30" r="2" fill="#3F51B5" />
    <circle cx="18" cy="30" r="2" fill="#3F51B5" />

    <!-- Center node -->
    <circle cx="24" cy="24" r="4" fill="#3F51B5" />

    <!-- Connections -->
    <line x1="24" y1="24" x2="24" y2="10" stroke="#3F51B5" stroke-width="1" />
    <line x1="24" y1="24" x2="38" y2="24" stroke="#3F51B5" stroke-width="1" />
    <line x1="24" y1="24" x2="24" y2="38" stroke="#3F51B5" stroke-width="1" />
    <line x1="24" y1="24" x2="10" y2="24" stroke="#3F51B5" stroke-width="1" />

    <line x1="24" y1="24" x2="30" y2="18" stroke="#3F51B5" stroke-width="1" />
    <line x1="24" y1="24" x2="18" y2="18" stroke="#3F51B5" stroke-width="1" />
    <line x1="24" y1="24" x2="30" y2="30" stroke="#3F51B5" stroke-width="1" />
    <line x1="24" y1="24" x2="18" y2="30" stroke="#3F51B5" stroke-width="1" />
</svg>